<svg id="Layer_1" data-name="Layer 1" xmlns="http://www.w3.org/2000/svg" viewBox="0 0 745.5 260.42"><defs><style>.cls-1,.cls-2,.cls-5{fill:#fff;}.cls-2{font-size:150px;}.cls-2,.cls-5{font-family:Montserrat-Black, Montserrat;font-weight:800;}.cls-3{letter-spacing:0em;}.cls-4{letter-spacing:0em;}.cls-5{font-size:35px;}.cls-6{letter-spacing:-0.01em;}.cls-7{letter-spacing:-0.03em;}.cls-8{letter-spacing:-0.01em;}.cls-9{letter-spacing:0em;}.cls-10{letter-spacing:0em;}</style></defs><path class="cls-1" d="M296.06,25S172.68,52.12,177.15,87c2,15.72,22.38,24.06,34.39,30.71,13.89,7.69,32.72,17.52,34.48,35.32,2.35,23.69-17.79,39.91-36.75,49.37-39.54,19.75-84,29.28-127.75,33.55q-12.45,1.22-24.95,1.9-9.62.54-19.26.63S167.79,197,163.65,167.11,61.09,120.67,114.72,64.28C114.72,64.28,146.78,25.58,296.06,25Z"/><text class="cls-2" transform="translate(257.28 165.65)">O<tspan class="cls-3" x="127.2" y="0">O</tspan><tspan class="cls-4" x="253.65" y="0">ZS</tspan></text><text class="cls-5" transform="translate(285.05 213.37)">C<tspan class="cls-6" x="26.04" y="0">R</tspan><tspan x="51.76" y="0">Y</tspan><tspan class="cls-7" x="76.61" y="0">P</tspan><tspan class="cls-8" x="101.74" y="0">T</tspan><tspan x="124.28" y="0">O &amp; </tspan><tspan class="cls-9" x="202.16" y="0">E</tspan><tspan class="cls-7" x="225.54" y="0">X</tspan><tspan class="cls-10" x="251.33" y="0">CHANGE</tspan></text></svg>